<svg xmlns="http://www.w3.org/2000/svg" xmlns:xlink="http://www.w3.org/1999/xlink" width="500" zoomAndPan="magnify" viewBox="0 0 375 374.999991" height="500" preserveAspectRatio="xMidYMid meet" version="1.0"><defs><clipPath id="75a4617bbb"><path d="M 93 82.5 L 282 82.5 L 282 272 L 93 272 Z M 93 82.5 " clip-rule="nonzero"/></clipPath><clipPath id="51637ab552"><path d="M 93 176.847656 L 208.398438 176.847656 L 208.398438 292.4375 L 93 292.4375 Z M 93 176.847656 " clip-rule="nonzero"/></clipPath></defs><g clip-path="url(#75a4617bbb)"><path fill="#2f3336" d="M 224.289062 264.140625 C 235.542969 259.382812 245.648438 252.570312 254.320312 243.894531 C 262.996094 235.222656 269.808594 225.117188 274.566406 213.863281 C 279.5 202.203125 282 189.824219 282 177.074219 C 282 164.324219 279.5 151.945312 274.566406 140.285156 C 269.808594 129.03125 262.996094 118.925781 254.320312 110.25 C 245.648438 101.578125 235.542969 94.765625 224.289062 90.003906 C 212.628906 85.074219 200.25 82.574219 187.5 82.574219 C 174.75 82.574219 162.371094 85.074219 150.710938 90.003906 C 139.457031 94.765625 129.351562 101.578125 120.675781 110.25 C 112.003906 118.925781 105.191406 129.03125 100.429688 140.285156 C 95.511719 151.914062 93.011719 164.257812 93 176.976562 L 122.53125 176.976562 C 122.585938 141.195312 151.707031 112.105469 187.5 112.105469 C 223.324219 112.105469 252.46875 141.25 252.46875 177.074219 C 252.46875 212.898438 223.324219 242.042969 187.5 242.042969 C 164.203125 242.042969 143.734375 229.714844 132.265625 211.242188 L 111.003906 232.570312 C 113.910156 236.570312 117.136719 240.355469 120.675781 243.894531 C 129.351562 252.570312 139.457031 259.382812 150.710938 264.140625 C 162.371094 269.074219 174.75 271.574219 187.5 271.574219 C 200.25 271.574219 212.628906 269.074219 224.289062 264.140625 " fill-opacity="1" fill-rule="nonzero"/></g><g clip-path="url(#51637ab552)"><path fill="#2f3336" d="M 93 292.4375 L 208.1875 176.976562 L 166.421875 176.976562 L 93 250.632812 L 93 292.4375 " fill-opacity="1" fill-rule="nonzero"/></g></svg>