<svg xmlns="http://www.w3.org/2000/svg" xmlns:xlink="http://www.w3.org/1999/xlink" width="500" zoomAndPan="magnify" viewBox="0 0 375 374.999991" height="500" preserveAspectRatio="xMidYMid meet" version="1.0"><defs><g/><clipPath id="9a081ab845"><path d="M 206.058594 127.5 L 293.058594 127.5 L 293.058594 215 L 206.058594 215 Z M 206.058594 127.5 " clip-rule="nonzero"/></clipPath><clipPath id="818f03fed8"><path d="M 206.058594 171.074219 L 259 171.074219 L 259 224.25 L 206.058594 224.25 Z M 206.058594 171.074219 " clip-rule="nonzero"/></clipPath></defs><g clip-path="url(#9a081ab845)"><path fill="#2f3336" d="M 266.402344 211.394531 C 271.601562 209.195312 276.269531 206.050781 280.273438 202.042969 C 284.28125 198.039062 287.425781 193.371094 289.625 188.171875 C 291.902344 182.785156 293.058594 177.070312 293.058594 171.179688 C 293.058594 165.292969 291.902344 159.574219 289.625 154.191406 C 287.425781 148.992188 284.28125 144.324219 280.273438 140.316406 C 276.269531 136.3125 271.601562 133.164062 266.402344 130.96875 C 261.019531 128.6875 255.300781 127.535156 249.410156 127.535156 C 243.523438 127.535156 237.804688 128.6875 232.421875 130.96875 C 227.222656 133.164062 222.554688 136.3125 218.550781 140.316406 C 214.542969 144.324219 211.398438 148.992188 209.199219 154.191406 C 206.925781 159.5625 205.773438 165.261719 205.765625 171.136719 L 219.40625 171.136719 C 219.429688 154.609375 232.882812 141.171875 249.410156 141.171875 C 265.957031 141.171875 279.417969 154.636719 279.417969 171.179688 C 279.417969 187.726562 265.957031 201.1875 249.410156 201.1875 C 238.652344 201.1875 229.199219 195.492188 223.902344 186.960938 L 214.082031 196.8125 C 215.421875 198.660156 216.914062 200.40625 218.550781 202.042969 C 222.554688 206.050781 227.222656 209.195312 232.421875 211.394531 C 237.804688 213.671875 243.523438 214.828125 249.410156 214.828125 C 255.300781 214.828125 261.019531 213.671875 266.402344 211.394531 " fill-opacity="1" fill-rule="nonzero"/></g><g clip-path="url(#818f03fed8)"><path fill="#2f3336" d="M 205.765625 224.464844 L 258.96875 171.136719 L 239.675781 171.136719 L 205.765625 205.15625 L 205.765625 224.464844 " fill-opacity="1" fill-rule="nonzero"/></g><g fill="#2f3336" fill-opacity="1"><g transform="translate(82.544647, 199.772315)"><g><path d="M 12.921875 -10.515625 L 9.328125 -6.765625 L 9.328125 0 L 3.171875 0 L 3.171875 -26.765625 L 9.328125 -26.765625 L 9.328125 -14.265625 L 21.1875 -26.765625 L 28.0625 -26.765625 L 16.96875 -14.828125 L 28.71875 0 L 21.484375 0 Z M 12.921875 -10.515625 "/></g></g></g><g fill="#2f3336" fill-opacity="1"><g transform="translate(110.832243, 199.772315)"><g><path d="M 20.796875 -5.734375 L 8.375 -5.734375 L 6 0 L -0.34375 0 L 11.578125 -26.765625 L 17.703125 -26.765625 L 29.671875 0 L 23.171875 0 Z M 18.84375 -10.4375 L 14.609375 -20.6875 L 10.359375 -10.4375 Z M 18.84375 -10.4375 "/></g></g></g><g fill="#2f3336" fill-opacity="1"><g transform="translate(140.113724, 199.772315)"><g><path d="M 11.96875 0.453125 C 9.851562 0.453125 7.804688 0.164062 5.828125 -0.40625 C 3.859375 -0.976562 2.273438 -1.722656 1.078125 -2.640625 L 3.171875 -7.296875 C 4.316406 -6.460938 5.679688 -5.789062 7.265625 -5.28125 C 8.847656 -4.769531 10.425781 -4.515625 12 -4.515625 C 13.757812 -4.515625 15.0625 -4.773438 15.90625 -5.296875 C 16.75 -5.816406 17.171875 -6.507812 17.171875 -7.375 C 17.171875 -8.007812 16.921875 -8.535156 16.421875 -8.953125 C 15.921875 -9.378906 15.28125 -9.71875 14.5 -9.96875 C 13.726562 -10.226562 12.679688 -10.515625 11.359375 -10.828125 C 9.316406 -11.304688 7.644531 -11.785156 6.34375 -12.265625 C 5.039062 -12.753906 3.925781 -13.535156 3 -14.609375 C 2.070312 -15.679688 1.609375 -17.109375 1.609375 -18.890625 C 1.609375 -20.441406 2.023438 -21.847656 2.859375 -23.109375 C 3.703125 -24.367188 4.972656 -25.367188 6.671875 -26.109375 C 8.367188 -26.847656 10.441406 -27.21875 12.890625 -27.21875 C 14.597656 -27.21875 16.265625 -27.015625 17.890625 -26.609375 C 19.523438 -26.203125 20.953125 -25.617188 22.171875 -24.859375 L 20.265625 -20.15625 C 17.796875 -21.550781 15.320312 -22.25 12.84375 -22.25 C 11.113281 -22.25 9.832031 -21.96875 9 -21.40625 C 8.175781 -20.84375 7.765625 -20.101562 7.765625 -19.1875 C 7.765625 -18.269531 8.238281 -17.585938 9.1875 -17.140625 C 10.144531 -16.703125 11.609375 -16.265625 13.578125 -15.828125 C 15.609375 -15.347656 17.273438 -14.863281 18.578125 -14.375 C 19.878906 -13.894531 20.992188 -13.128906 21.921875 -12.078125 C 22.859375 -11.035156 23.328125 -9.625 23.328125 -7.84375 C 23.328125 -6.3125 22.898438 -4.914062 22.046875 -3.65625 C 21.191406 -2.394531 19.910156 -1.394531 18.203125 -0.65625 C 16.492188 0.0820312 14.414062 0.453125 11.96875 0.453125 Z M 11.96875 0.453125 "/></g></g></g><g fill="#2f3336" fill-opacity="1"><g transform="translate(164.502214, 199.772315)"><g><path d="M 3.171875 -26.765625 L 9.375 -26.765625 L 9.375 0 L 3.171875 0 Z M 3.171875 -26.765625 "/></g></g></g><g fill="#2f3336" fill-opacity="1"><g transform="translate(177.040498, 199.772315)"><g><path d="M 20.21875 0 L 15.0625 -7.453125 L 9.375 -7.453125 L 9.375 0 L 3.171875 0 L 3.171875 -26.765625 L 14.765625 -26.765625 C 17.128906 -26.765625 19.179688 -26.367188 20.921875 -25.578125 C 22.671875 -24.785156 24.015625 -23.660156 24.953125 -22.203125 C 25.898438 -20.753906 26.375 -19.035156 26.375 -17.046875 C 26.375 -15.054688 25.894531 -13.34375 24.9375 -11.90625 C 23.988281 -10.46875 22.632812 -9.367188 20.875 -8.609375 L 26.875 0 Z M 20.109375 -17.046875 C 20.109375 -18.554688 19.625 -19.710938 18.65625 -20.515625 C 17.6875 -21.316406 16.273438 -21.71875 14.421875 -21.71875 L 9.375 -21.71875 L 9.375 -12.390625 L 14.421875 -12.390625 C 16.273438 -12.390625 17.6875 -12.796875 18.65625 -13.609375 C 19.625 -14.421875 20.109375 -15.566406 20.109375 -17.046875 Z M 20.109375 -17.046875 "/></g></g></g></svg>